<svg width="584" height="397" viewBox="0 0 584 397" fill="none" xmlns="http://www.w3.org/2000/svg">
<g clip-path="url(#clip0_1_112)">
<path d="M516.842 186.436H75.5016V395.746H516.842V186.436Z" fill="#747474" fill-opacity="0.5"/>
<path d="M504.223 204.385H88.1219V379.018H504.223V204.385Z" fill="white"/>
<path d="M434.637 236.89H423.862V247.659H434.637V236.89Z" fill="#747474" fill-opacity="0.5"/>
<path d="M147.236 236.89H136.461V247.659H147.236V236.89Z" fill="#324E7B"/>
<path d="M172.066 267.736H136.149V303.634H172.066V267.736Z" fill="#747474" fill-opacity="0.5"/>
<path d="M516.654 174.343H75.3134V193.082H516.654V174.343Z" fill="#324E7B"/>
<path d="M89.2466 191.343C91.1659 191.343 92.7218 189.788 92.7218 187.87C92.7218 185.952 91.1659 184.397 89.2466 184.397C87.3274 184.397 85.7715 185.952 85.7715 187.87C85.7715 189.788 87.3274 191.343 89.2466 191.343Z" fill="white"/>
<path d="M102.437 191.343C104.356 191.343 105.912 189.788 105.912 187.87C105.912 185.952 104.356 184.397 102.437 184.397C100.518 184.397 98.962 185.952 98.962 187.87C98.962 189.788 100.518 191.343 102.437 191.343Z" fill="white"/>
<path d="M115.628 191.343C117.547 191.343 119.103 189.788 119.103 187.87C119.103 185.952 117.547 184.397 115.628 184.397C113.709 184.397 112.153 185.952 112.153 187.87C112.153 189.788 113.709 191.343 115.628 191.343Z" fill="white"/>
<path d="M584 395.746H0V397H584V395.746Z" fill="#E6E6E6"/>
<path d="M297.312 271.327H209.317V276.376H297.312V271.327Z" fill="#747474" fill-opacity="0.5"/>
<path d="M345.202 289.743H209.317V294.791H345.202V289.743Z" fill="#324E7B"/>
<path d="M320.06 307.092H209.317V312.141H320.06V307.092Z" fill="#747474" fill-opacity="0.5"/>
<path d="M273.967 324.377H209.317V329.426H273.967V324.377Z" fill="#747474" fill-opacity="0.5"/>
<path d="M306.89 341.661H209.317V346.71H306.89V341.661Z" fill="#747474" fill-opacity="0.5"/>
<path d="M453.195 236.89H442.42V247.659H453.195V236.89Z" fill="#747474" fill-opacity="0.5"/>
<path d="M471.752 236.89H460.977V247.659H471.752V236.89Z" fill="#747474" fill-opacity="0.5"/>
<path opacity="0.997" d="M449.869 329.425C461.954 329.425 471.751 319.634 471.751 307.555C471.751 295.477 461.954 285.685 449.869 285.685C437.784 285.685 427.987 295.477 427.987 307.555C427.987 319.634 437.784 329.425 449.869 329.425Z" fill="#324E7B"/>
<path d="M118.236 59.2188C131.842 59.2188 142.871 48.1953 142.871 34.597C142.871 20.9988 131.842 9.97525 118.236 9.97525C104.63 9.97525 93.6006 20.9988 93.6006 34.597C93.6006 48.1953 104.63 59.2188 118.236 59.2188Z" fill="#2F2E41"/>
<path d="M56.9278 245.264H46.1385L41.0067 203.682H56.9265L56.9278 245.264Z" fill="#FEB8B8"/>
<path d="M38.4367 242.184H59.2393V255.275H25.3384C25.3384 251.803 26.7184 248.473 29.1748 246.018C31.6312 243.563 34.9628 242.184 38.4367 242.184Z" fill="#2F2E41"/>
<path d="M40.0896 239.248L29.7984 236.02L37.3584 194.808L52.5474 199.572L40.0896 239.248Z" fill="#FEB8B8"/>
<path d="M23.3637 230.776L43.2125 237.002L39.2906 249.492L6.94507 239.347C7.4601 237.707 8.29335 236.184 9.39723 234.866C10.5011 233.547 11.854 232.459 13.3787 231.663C14.9034 230.867 16.5699 230.379 18.2833 230.227C19.9966 230.075 21.7232 230.262 23.3644 230.777L23.3637 230.776Z" fill="#2F2E41"/>
<path d="M43.5993 222.654C43.128 222.654 42.6605 222.569 42.2193 222.404L34.281 219.43C33.3901 219.093 32.65 218.447 32.1956 217.611C31.7411 216.774 31.6025 215.802 31.8051 214.872C33.803 205.893 40.6122 175.326 44.3407 158.931C48.7625 139.484 113.27 135.87 116.013 135.726L116.239 135.714L123.496 144.824C126.118 153.248 125.287 159.818 121.025 164.353C108.591 177.585 71.4664 169.375 67.0397 168.336L47.3084 220.107C47.0209 220.856 46.5126 221.501 45.8507 221.956C45.1888 222.411 44.4045 222.654 43.6012 222.654H43.5993Z" fill="#2F2E41"/>
<path d="M55.0371 228.81C54.5658 228.81 54.0983 228.725 53.6571 228.56L45.7214 225.585C44.8304 225.248 44.0902 224.603 43.6357 223.766C43.1813 222.929 43.0428 221.957 43.2455 221.027C45.2434 212.048 52.0525 181.481 55.7811 165.086C60.2028 145.639 124.71 142.026 127.454 141.881L127.68 141.87L134.933 150.982C137.556 159.406 136.724 165.976 132.463 170.511C120.029 183.74 82.9042 175.532 78.4774 174.493L58.7438 226.262C58.4562 227.011 57.9479 227.656 57.286 228.111C56.6242 228.566 55.8398 228.81 55.0365 228.81L55.0371 228.81Z" fill="#2F2E41"/>
<path d="M32.078 102.163C32.3694 102.553 32.6297 102.965 32.8564 103.396L76.2506 107.965L82.4983 99.4044L96.6554 107.138L84.3864 127.909L31.1671 114.347C29.8244 115.656 28.115 116.525 26.2662 116.838C24.4174 117.152 22.5168 116.896 20.8173 116.104C19.1177 115.311 17.6998 114.021 16.752 112.404C15.8042 110.787 15.3714 108.919 15.5113 107.05C15.6512 105.181 16.3571 103.399 17.5351 101.941C18.7131 100.482 20.3074 99.4172 22.106 98.8866C23.9045 98.356 25.8221 98.3852 27.6036 98.9703C29.3851 99.5555 30.9462 100.669 32.0792 102.162L32.078 102.163Z" fill="#FEB8B8"/>
<path d="M132.919 154.47C132.292 154.469 131.674 154.318 131.116 154.031C122.439 149.622 105.542 141.985 89.8739 140.387C89.3377 140.334 88.8184 140.17 88.3494 139.905C87.8803 139.64 87.4719 139.28 87.1503 138.848C86.8224 138.412 86.5881 137.912 86.4619 137.381C86.3358 136.85 86.3205 136.299 86.417 135.761C87.8309 127.939 91.0739 108.02 90.6561 92.056C90.5331 87.1475 92.0848 82.3433 95.056 78.4331C98.0272 74.5228 102.241 71.7393 107.005 70.5401C109.872 69.784 112.784 69.21 115.724 68.8216C119.104 68.3938 122.537 68.7631 125.749 69.8999C128.96 71.0367 131.86 72.9093 134.217 75.3679C136.575 77.8265 138.323 80.8026 139.322 84.0578C140.321 87.313 140.544 90.757 139.972 94.1136C137.178 110.657 134.361 133.764 136.809 149.894C136.922 150.617 136.832 151.357 136.549 152.032C136.267 152.707 135.803 153.29 135.209 153.718C134.544 154.204 133.743 154.468 132.919 154.47Z" fill="#CCCCCC"/>
<path d="M91.4597 112.391C90.9188 112.391 90.3838 112.279 89.8877 112.064L78.5834 107.173C77.6206 106.756 76.8628 105.973 76.4765 104.997C76.0902 104.022 76.1069 102.933 76.5228 101.97L85.2608 81.7955C85.7799 80.573 86.5348 79.4647 87.4824 78.5338C88.43 77.6029 89.5518 76.8677 90.7837 76.3701C92.0157 75.8725 93.3336 75.6223 94.6623 75.6337C95.9909 75.6452 97.3044 75.9181 98.5275 76.4368C99.7507 76.9556 100.86 77.7101 101.791 78.6572C102.722 79.6043 103.458 80.7254 103.956 81.9567C104.454 83.1879 104.704 84.5051 104.693 85.8331C104.681 87.161 104.408 88.4737 103.889 89.6962C103.87 89.7406 103.851 89.7849 103.832 89.8291L95.0935 110.004C94.7859 110.712 94.2782 111.315 93.6328 111.739C92.9873 112.163 92.2321 112.39 91.4597 112.391Z" fill="#CCCCCC"/>
<path d="M117.336 61.9586C129.271 61.9586 138.946 52.2888 138.946 40.3605C138.946 28.4322 129.271 18.7624 117.336 18.7624C105.401 18.7624 95.7258 28.4322 95.7258 40.3605C95.7258 52.2888 105.401 61.9586 117.336 61.9586Z" fill="#FEB8B8"/>
<path d="M95.3369 29.7471C105.573 35.9921 117.112 39.7924 129.058 40.852L125.503 36.5957C128.091 37.5521 130.814 38.0925 133.572 38.197C134.952 38.237 136.323 37.953 137.574 37.3677C138.825 36.7825 139.921 35.9124 140.775 34.8272C141.472 33.7007 141.886 32.4226 141.981 31.1016C142.077 29.7807 141.852 28.4563 141.325 27.2412C140.242 24.8167 138.556 22.7096 136.428 21.1204C132.655 18.1378 128.203 16.1344 123.468 15.2886C118.733 14.4428 113.862 14.7809 109.29 16.2729C106.153 17.2097 103.344 19.0107 101.184 21.4696C99.1351 23.9955 95.1914 26.2462 96.2402 29.3239L95.3369 29.7471Z" fill="#2F2E41"/>
<path d="M119.268 11.5526C123.575 7.18597 128.788 3.81607 134.539 1.68023C138.189 0.145444 142.193 -0.351193 146.108 0.24516C149.968 1.02131 153.617 3.68957 154.694 7.4744C155.572 10.569 154.665 13.9012 153.299 16.8158C151.933 19.7304 150.109 22.4307 149.003 25.4525C147.876 28.536 147.537 31.852 148.017 35.0997C148.497 38.3474 149.781 41.4238 151.752 44.0496C153.724 46.6755 156.32 48.7676 159.306 50.1362C162.292 51.5047 165.572 52.1062 168.849 51.8862C165.057 52.3946 161.562 54.1757 157.856 55.1231C154.149 56.0704 149.774 56.007 147.02 53.3526C144.106 50.5445 144.047 45.9791 144.188 41.936L144.816 23.904C144.922 20.8389 145.014 17.6753 143.907 14.8134C142.801 11.9514 140.173 9.44676 137.104 9.47309C134.778 9.49252 132.72 10.9013 130.854 12.2899C128.989 13.6786 127.015 15.1601 124.698 15.3669C122.382 15.5738 119.736 13.8623 119.909 11.5426" fill="#2F2E41"/>
<path d="M81.0042 148.922C79.5723 148.92 78.1587 148.601 76.8652 147.988C75.5716 147.374 74.4303 146.481 73.5234 145.374C72.6166 144.267 71.9668 142.972 71.6208 141.583C71.2749 140.195 71.2414 138.747 71.5228 137.343C71.8042 135.94 72.3935 134.617 73.2482 133.469C74.1028 132.321 75.2017 131.376 76.4655 130.704C77.7293 130.031 79.1267 129.647 80.5569 129.579C81.9871 129.511 83.4146 129.761 84.7365 130.311C85.1341 130.479 85.5196 130.674 85.8901 130.896L125.255 113.234L126.361 102.564L143.33 102.11L143.217 119.874C143.197 121.932 142.513 123.929 141.267 125.567C140.021 127.206 138.279 128.399 136.3 128.97L90.2672 142.064C90.1784 142.368 90.0737 142.667 89.9536 142.96C89.215 144.723 87.9723 146.229 86.3811 147.29C84.7899 148.35 82.921 148.918 81.0085 148.921L81.0042 148.922Z" fill="#FEB8B8"/>
<path d="M141.893 110.814C141.41 111.058 140.882 111.201 140.343 111.233L128.048 111.988C127 112.051 125.97 111.697 125.184 111.002C124.397 110.307 123.919 109.329 123.853 108.282L122.504 86.3389C122.342 83.6637 123.25 81.0337 125.027 79.0268C126.804 77.0199 129.306 75.8001 131.983 75.6356C134.659 75.471 137.291 76.375 139.302 78.1491C141.312 79.9231 142.535 82.4221 142.702 85.097L144.052 107.04C144.099 107.811 143.92 108.578 143.536 109.249C143.153 109.919 142.582 110.463 141.894 110.814H141.893Z" fill="#CCCCCC"/>
<path d="M117.136 144.985H43.7003C43.0843 144.985 42.585 145.484 42.585 146.099V150.025C42.585 150.641 43.0843 151.14 43.7003 151.14H117.136C117.752 151.14 118.251 150.641 118.251 150.025V146.099C118.251 145.484 117.752 144.985 117.136 144.985Z" fill="#3F3D56"/>
<path d="M14.3679 145.425V102.336C14.3697 100.821 14.9729 99.3678 16.045 98.2963C17.1171 97.2248 18.5707 96.622 20.0869 96.6202H98.3924C99.9087 96.6218 101.362 97.2246 102.434 98.2961C103.507 99.3677 104.11 100.821 104.111 102.336V145.425C104.11 146.94 103.507 148.393 102.434 149.465C101.362 150.536 99.9087 151.139 98.3924 151.141H20.0869C18.5707 151.139 17.1171 150.536 16.045 149.465C14.9729 148.393 14.3697 146.94 14.3679 145.425Z" fill="#3F3D56"/>
<path d="M60.1815 129.159C63.0971 129.159 65.4607 126.797 65.4607 123.883C65.4607 120.969 63.0971 118.606 60.1815 118.606C57.2659 118.606 54.9023 120.969 54.9023 123.883C54.9023 126.797 57.2659 129.159 60.1815 129.159Z" fill="white"/>
</g>
<defs>
<clipPath id="clip0_1_112">
<rect width="584" height="397" fill="white"/>
</clipPath>
</defs>
</svg>
